<?xml version="1.0" encoding="UTF-8"?>
<svg id="Layer_1" data-name="Layer 1" xmlns="http://www.w3.org/2000/svg" viewBox="0 0 1920 1080">
  <defs>
    <style>
      .cls-1 {
        stroke-width: 0px;
      }
    </style>
  </defs>
  <path class="cls-1" d="m1096,698.55c0,12.35.01,24.15,0,35.95,0,5.92-1.39,7.27-7.33,7.29-3.83.01-7.66.01-11.49,0-5.59-.03-7.15-1.5-7.16-7.01-.04-11.66-.01-23.32-.01-34.98,0-25.32,0-50.64,0-75.96,0-6.77,1.05-7.83,7.75-7.83,12.16,0,24.32-.02,36.48,0,20.7.04,35.77,10.22,40.26,28.23,4.82,19.38.34,39.27-19.26,49.76-.27.15-.49.4-.9.74,8.13,12.71,16.34,25.4,24.32,38.23,1.17,1.88,2.29,5.11,1.44,6.55-.88,1.5-4.13,2-6.41,2.18-4.14.34-8.34-.15-12.48.2-4.63.39-7.41-1.58-9.69-5.42-6.45-10.85-13.41-21.4-19.61-32.39-2.5-4.43-5.47-6.11-10.24-5.57-1.64.19-3.32.03-5.65.03Zm.2-24.2c6.89,0,13.21.42,19.45-.11,7.94-.67,12.75-6.27,13.54-14.63.9-9.53-2.87-17.51-10.49-19.11-7.29-1.53-14.94-1.34-22.5-1.91v35.76Z"/>
  <path class="cls-1" d="m1043.16,660.37c0,14.31,1.12,28.72-.23,42.9-2.97,31.34-24.35,42.46-53.2,40.25-26-1.98-39.35-18.11-40.56-43.78-1.2-25.6-.68-51.29-.79-76.94-.02-5.32,1.67-6.76,6.92-6.8,4.17-.03,8.34.2,12.49-.06,4.85-.3,6.51,1.97,6.49,6.52-.09,17.49-.12,34.99,0,52.49.05,8.32.1,16.67.77,24.95,1,12.29,8.7,19.05,21.09,19.2,12.16.15,19.82-6.18,20.8-18.69.97-12.42.89-24.94,1.03-37.41.15-13.33.02-26.66.05-39.99.01-5.93,1.11-6.99,6.98-7.02,4.17-.02,8.34.17,12.49-.05,4.72-.26,6.63,1.71,6.58,6.43-.14,12.66-.05,25.33-.05,37.99-.28,0-.57,0-.85,0Z"/>
  <path class="cls-1" d="m719.01,678.36c-.11-19.72,5.03-37.43,20.19-51.12,24.94-22.52,76.38-19.02,89.01,24.16,2.19,7.5.47,9.74-7.21,9.73-.83,0-1.68-.1-2.5.01-8.97,1.25-15.31-.67-19.57-10.24-4.44-9.95-14.04-13.78-24.97-12.76-11.71,1.09-19.73,7.41-23.9,18.34-5.69,14.9-5.66,29.96.12,44.78,5.63,14.43,20.62,21.59,35.54,17.35,7.59-2.16,12.71-7.28,15.15-14.63,1.74-5.27,4.64-7.6,10.24-7.03,3.79.39,7.65.05,11.48.08,5.48.04,7.52,2.19,6.15,7.36-4.99,18.85-15.93,32.6-35.39,37.49-41.09,10.33-71.73-17.36-74.32-55.52-.18-2.65-.02-5.33-.02-7.99Z"/>
  <path class="cls-1" d="m1345.2,652.14c-1.17,0-2.35-.15-3.49.02-5.59.84-8.67-.78-9.95-7.01-1.35-6.56-7.53-9.42-16.33-9.18-6.63.18-11.03,3.33-12.72,9.11-1.51,5.17.24,10.68,5.92,14.08,7.37,4.42,15.34,7.82,22.96,11.84,5.41,2.86,11.04,5.53,15.91,9.16,10.79,8.04,14.4,19.39,12.19,32.29-2.46,14.4-11.45,23.81-25.12,28.29-12.01,3.94-24.26,3.78-36.19-.73-14.74-5.57-22.1-16.78-23.81-32.1-.41-3.62,1.21-5.32,4.78-5.33,5.16,0,10.33.07,15.49-.02,3.44-.06,5.13,1.4,5.6,4.86,1.56,11.55,12.64,14.92,21.43,13.18,5.22-1.04,9.17-3.76,10.61-9.28,1.47-5.65.34-10.85-4.05-14.53-3.36-2.82-7.48-4.86-11.51-6.74-7.05-3.29-14.5-5.79-21.41-9.33-14.51-7.44-21.78-19.71-20.27-33.07,1.81-16.02,11.39-27.85,27.22-31.99,15.21-3.97,30.11-3.11,43.18,6.91,7.65,5.86,11.5,13.96,12.46,23.53.46,4.58-1.27,6.54-5.92,6.08-2.31-.23-4.66-.04-6.99-.04v-.02Z"/>
  <path class="cls-1" d="m1208.25,688.62v30.47c13.52,0,26.8,0,40.08,0,6.89,0,7.44.55,7.45,7.33,0,2.83.02,5.66-.01,8.49-.08,5.66-1.35,6.93-7.17,6.93-19.99.02-39.97.01-59.96-.02-5.57,0-6.68-1.12-6.68-6.74-.02-37.47-.02-74.95.01-112.42,0-5.58,1.14-6.65,6.78-6.66,20.15-.02,40.31.06,60.46-.07,4.76-.03,6.67,2.08,6.59,6.59-.06,3.66-.07,7.33,0,10.99.07,3.92-1.55,5.7-5.68,5.65-13.8-.15-27.61-.06-41.76-.06v27.21c4.38,0,8.96,0,13.54,0,7.49,0,14.99.06,22.48-.06,4-.06,5.85,1.52,5.59,5.66-.21,3.32-.05,6.66-.04,9.99,0,6.3-.32,6.65-6.87,6.67-9.83.03-19.65.03-29.48.04-1.65,0-3.29,0-5.32,0Z"/>
  <path class="cls-1" d="m592.81,699.61c0,11.22,0,22.5,0,33.78,0,7.31-1.03,8.36-8.29,8.36-3.83,0-7.66.05-11.49.03-4.06-.03-6.06-2-6.06-6.17.03-37.97.02-75.94,0-113.91,0-3.57,1.29-5.76,5.19-5.75,13.66.03,27.33-.43,40.96.17,19.88.87,36.71,17.77,37.85,37.14,1.38,23.34-11.38,40.99-32.98,44.62-8.11,1.36-16.47,1.17-25.19,1.72Zm.26-60.63v36.18c5.55,0,10.84.14,16.12-.03,10.12-.32,16.54-6.97,16.78-17.18.25-10.34-6.62-18.41-16.43-18.92-5.3-.28-10.63-.05-16.47-.05Z"/>
  <path class="cls-1" d="m898.97,640c0,7.19,0,13.82,0,20.44,0,24.47,0,48.95-.02,73.42,0,6.64-1.27,7.9-7.76,7.9-3.83,0-7.66-.04-11.49.08-4.67.15-6.69-2.2-6.69-6.67,0-9.16.01-18.31.01-27.47,0-22.31,0-44.61,0-67.71-7.38,0-14.63.01-21.87,0-6.34-.01-7.91-1.58-7.96-7.93-.02-3.33.02-6.66.03-9.99,0-4.03,1.8-6.12,6.04-6.11,24.97.05,49.95.07,74.92-.02,4.02-.01,5.85,1.55,5.74,5.59-.11,3.99-.04,7.99-.01,11.99.03,4.58-2.2,6.58-6.78,6.5-7.81-.13-15.62-.04-24.16-.04Z"/>
  <path class="cls-1" d="m697.03,679.05c0,17.65.02,35.31,0,52.96,0,9.08-.68,9.75-9.53,9.75-3.33,0-6.66-.02-9.99,0-4.11.02-6.17-2.17-6.35-6.1-.17-3.66-.09-7.33-.1-10.99-.02-33.48-.02-66.95-.03-100.43,0-6.85,1.34-8.23,8.02-8.25,3.66-.01,7.33-.03,10.99,0,5.72.04,6.96,1.23,6.97,7.11.04,18.65.02,37.31.02,55.96Z"/>
  <g>
    <path class="cls-1" d="m570.83,410.28c0,17.59.09,35.17-.02,52.76-.14,21.83-.42,43.66-.69,65.49-.03,2.66-.25,5.33-.55,7.97-.52,4.54-3.07,7.59-7.66,7.76-9.98.35-20,.65-29.97.22-6.8-.29-10.58-5.27-10.45-12.78.45-25.66,1.09-51.31,1.6-76.97.82-40.49,1.59-80.97,2.39-121.46.05-2.5,0-5.02.3-7.49,1-8.27,5.58-12.48,13.93-12.6,9.16-.14,18.33-.04,27.5-.04,9.15,0,13.75,3.02,17.27,11.51,8.34,20.07,16.64,40.16,24.95,60.25,10.47,25.29,20.93,50.58,31.65,76.51,4.24-10.46,8.3-20.4,12.31-30.36,14.06-34.93,28.1-69.87,42.17-104.8,4.23-10.5,8.28-13.14,19.7-13.11,8,.02,16-.07,24,.07,11.02.19,15.45,4.42,15.78,15.44.7,23.48,1.15,46.98,1.78,70.46,1.18,44.14,2.46,88.28,3.59,132.42.23,8.86-3.12,12.56-12,12.97-8.48.39-17,.31-25.49.12-8.11-.19-10.77-2.73-10.95-10.9-.63-27.65-1.12-55.31-1.5-82.97-.19-13.61-.03-27.23-.03-40.84l-1.51-.15c-4.16,10.73-8.26,21.48-12.49,32.18-12.24,31.01-24.57,61.98-36.77,93.01-2.64,6.71-7.33,9.91-14.48,10.05-18.17.35-19.24-.38-25.97-17.31-15.38-38.68-30.83-77.34-46.25-116.01-.22-.55-.54-1.06-.81-1.58-.44.06-.88.11-1.32.17Z"/>
    <path class="cls-1" d="m926.51,396.4c0-21.5-.03-43,.03-64.5,0-2.98.15-6.01.7-8.93.97-5.09,4.14-8.67,9.35-8.95,9.45-.51,18.98-.96,28.4-.31,8.1.56,11.44,5.56,11.45,14.7.03,41.83.27,83.66-.18,125.49-.12,10.88-1.52,21.96-3.96,32.58-7.86,34.27-31.23,55.2-65.9,60.63-17.66,2.76-35.09,2.36-52.49-1.8-33.07-7.9-52.06-29.18-58.35-62-1.96-10.23-2.89-20.81-2.97-31.23-.33-40.49-.15-80.99-.13-121.49,0-12.58,4.59-17.31,17.08-17.36,7.15-.03,14.35-.14,21.45.61,8.21.86,11.5,5.04,11.51,13.43.05,39.66,0,79.33.09,118.99.01,7.32.09,14.67.74,21.96,1.94,21.46,14.93,34.33,36.43,35.53,6.87.38,14.09-.25,20.73-2.01,14.58-3.86,21.9-14.78,24.85-28.93.84-4.03,1.05-8.25,1.07-12.39.1-21.33.05-42.66.05-64h.05Z"/>
    <path class="cls-1" d="m1190.79,398.05c-4.5,0-9.01-.17-13.5.04-5.8.27-9.37-2.69-11.78-7.53-.89-1.78-1.54-3.67-2.38-5.47-8.88-19.28-24.25-29.14-45.16-29.99-22.42-.91-39.83,8.08-50.46,28.27-9.92,18.82-12.1,39.2-10.51,60.09.96,12.53,3.63,24.63,10.53,35.45,10.21,15.98,25.24,23.76,43.72,24.92,6.73.42,13.77.08,20.31-1.43,15.21-3.51,25.26-13.42,30.84-27.87,3.72-9.63,4.98-10.58,15.33-10.58,9.33,0,18.66-.02,28,0,7.6.02,11.47,4.38,10.07,11.76-3.69,19.37-13.66,35.24-28.25,48.1-23.4,20.62-51.46,26.69-81.74,24.68-20.97-1.4-40.5-7.37-57.49-20.15-20.43-15.37-32.64-36.1-37.97-60.84-6.35-29.48-6.22-58.93,4.03-87.57,14.69-41.06,44.18-64.13,87.47-69,30.79-3.47,59.31,2.87,83.92,22.55,15.54,12.43,25.85,28.43,30.22,48.01,2.49,11.14-1.89,16.6-13.21,16.59-.17,0-.33,0-.5,0-3.83,0-7.67,0-11.5,0v-.03Z"/>
    <path class="cls-1" d="m1295.95,426.68c0,32.66,0,65.31,0,97.97,0,1.17.03,2.33-.03,3.5-.45,10.03-4.57,14.19-14.56,14.42-6.49.15-13,.11-19.49-.04-11.58-.27-15.58-4.27-15.6-15.88-.07-45.65-.05-91.3-.05-136.96,0-20.66-.03-41.32.03-61.98.04-12.7,4.14-16.75,16.78-16.79,5.16-.02,10.33-.01,15.5,0,13.13.03,17.43,4.28,17.43,17.3.01,32.82,0,65.65,0,98.47Z"/>
    <path class="cls-1" d="m1375.23,426.68c0,32.66,0,65.31,0,97.97,0,1.17.03,2.33-.03,3.5-.45,10.03-4.57,14.19-14.56,14.42-6.49.15-13,.11-19.49-.04-11.58-.27-15.58-4.27-15.6-15.88-.07-45.65-.05-91.3-.05-136.96,0-20.66-.03-41.32.03-61.98.04-12.7,4.14-16.75,16.78-16.79,5.16-.02,10.33-.01,15.5,0,13.13.03,17.43,4.28,17.43,17.3.01,32.82,0,65.65,0,98.47Z"/>
  </g>
</svg>